<svg id="Capa_1" data-name="Capa 1" xmlns="http://www.w3.org/2000/svg" viewBox="0 0 87.16 18.16" width="90%" height="20%" style="margin-top: 5px;">
  <defs>
    <style>.cls-1{fill:#2391c1;}.cls-2{font-size:18px;fill:#fff;font-family:'Myriad Pro', sans-serif;}</style>
  </defs>
  <path class="cls-1" d="M26.76,53.37c-1.14-1.5-2.69-1.29-6.11,1.62a7,7,0,0,1,.2-1.18,9.39,9.39,0,0,1,8-6.72,3.62,3.62,0,0,1,4.16,4,8,8,0,0,1-4.6,7,2.45,2.45,0,0,1-3-.38,2.33,2.33,0,0,1,.13-3A18,18,0,0,1,26.76,53.37Z" transform="translate(-15.09 -45.66)"></path>
  <path class="cls-1" d="M28.51,45.83c-3.22,1-5.88,2.72-7.44,5.72a12.19,12.19,0,0,0-1.3,4.14c-.36,3.26,2.3,5.27,5.72,4.5l1.73-.38.35.43a5,5,0,0,1-.73.55,9.62,9.62,0,0,1-6.92,1.85c-3.7-.4-5.15-3-4.77-6.34.6-5.38,6-10.32,11.39-10.63A7,7,0,0,1,28.51,45.83Z" transform="translate(-15.09 -45.66)"></path>
  <text class="cls-2" transform="translate(22.38 15.5)">ERDEN</text>
</svg>